<?xml version="1.0" encoding="UTF-8" standalone="no"?>
<svg
   xmlns:dc="http://purl.org/dc/elements/1.1/"
   xmlns:cc="http://creativecommons.org/ns#"
   xmlns:rdf="http://www.w3.org/1999/02/22-rdf-syntax-ns#"
   xmlns:svg="http://www.w3.org/2000/svg"
   xmlns="http://www.w3.org/2000/svg"
   version="1.1"
   id="svg2"
   viewBox="0 0 6.3499999 6.3500002"
   height="24"
   width="24">
  <defs
     id="defs4" />
  <metadata
     id="metadata7">
    <rdf:RDF>
      <cc:Work
         rdf:about="">
        <dc:format>image/svg+xml</dc:format>
        <dc:type
           rdf:resource="http://purl.org/dc/dcmitype/StillImage" />
        <dc:title></dc:title>
      </cc:Work>
    </rdf:RDF>
  </metadata>
  <g
     transform="translate(0,-290.64998)"
     id="layer1">
    <path
       id="rect3344"
       transform="matrix(0.26458333,0,0,0.26458333,0,290.64998)"
       d="M 10.384766 2.3847656 L 10.384766 8.0996094 L 6.34375 4.0585938 L 4.0585938 6.34375 L 8.0996094 10.384766 L 2.3847656 10.384766 L 2.3847656 13.615234 L 8.0996094 13.615234 L 4.0585938 17.65625 L 6.34375 19.941406 L 10.384766 15.900391 L 10.384766 21.615234 L 13.615234 21.615234 L 13.615234 15.900391 L 17.65625 19.941406 L 19.941406 17.65625 L 15.900391 13.615234 L 21.615234 13.615234 L 21.615234 10.384766 L 15.900391 10.384766 L 19.941406 6.34375 L 17.65625 4.0585938 L 13.615234 8.0996094 L 13.615234 2.3847656 L 10.384766 2.3847656 z "
       style="fill:#de9e04;fill-opacity:1;fill-rule:evenodd;stroke:none;stroke-width:0.77002561px;stroke-linecap:butt;stroke-linejoin:miter;stroke-opacity:1" />
  </g>
</svg>
